<svg width="170" height="42" viewBox="0 0 170 42" fill="none" xmlns="http://www.w3.org/2000/svg">
<path d="M126.914 12.7689C130.244 10.2427 133.847 9.97869 137.713 11.0525C137.713 12.7187 137.713 14.3427 137.713 16.1317C137.229 15.9702 136.788 15.8156 136.343 15.6749C131.856 14.2583 127.38 17.79 128.002 22.2536C128.422 25.2674 130.872 27.4221 133.868 27.4136C136.85 27.4052 139.456 25.1166 139.753 22.1186C139.907 20.5715 139.886 19.0041 139.89 17.4457C139.905 12.3844 139.896 7.32307 139.896 2.26175C139.896 1.84829 139.896 1.43485 139.896 0.9823C141.605 0.9823 143.22 0.9823 144.792 0.9823C144.858 1.07195 144.9 1.10277 144.9 1.13336C144.858 8.47336 144.989 15.8201 144.707 23.151C144.516 28.1139 140.214 31.9211 135.195 32.2608C132.179 32.465 129.38 31.9848 126.926 30.0788C124.012 27.8155 122.875 24.725 122.916 21.1818C122.955 17.8412 124.141 14.9494 126.914 12.7689Z" fill="#032A79"/>
<path d="M81.0657 11.4416C84.3706 13.3431 86.0829 16.2006 86.5702 19.8388C86.686 20.7036 86.7474 21.5816 86.7534 22.454C86.7749 25.5694 86.7618 28.685 86.7618 31.8759C85.0852 31.8759 83.473 31.8759 81.7289 31.8759C81.7289 29.1309 81.748 26.405 81.7198 23.6797C81.708 22.5422 81.696 21.3891 81.5103 20.2721C80.9543 16.9276 78.4694 14.901 75.3345 15.1337C72.279 15.3606 69.8556 17.9472 69.7952 21.0461C69.7341 24.1866 72.0286 26.942 75.1665 27.2108C76.6242 27.3356 78.1198 27.0173 79.7225 26.89C79.7225 28.083 79.7489 29.5823 79.6939 31.0785C79.6857 31.3014 79.3322 31.6246 79.0754 31.7087C72.2352 33.9478 65.4685 29.4357 64.7838 22.9049C64.151 16.8691 67.4122 12.0039 73.2572 10.5099C75.8993 9.8346 78.5305 10.0822 81.0657 11.4416Z" fill="#049D3E"/>
<path d="M162.529 31.5138C159.119 32.6624 155.902 32.5886 152.784 30.7961C148.362 28.2538 146.39 22.8581 147.991 17.5219C149.316 13.1025 154.109 10.039 158.935 10.2395C163.807 10.442 168.059 14.2271 169.022 18.8028C170.07 23.7879 167.827 28.6906 163.313 31.1043C163.078 31.2295 162.845 31.3569 162.529 31.5138ZM164.068 22.1332C164.424 19.0938 162.727 16.2416 160.037 15.3552C157.119 14.394 153.919 16.0895 152.864 19.1564C151.742 22.4171 153.455 26.1238 156.574 27.1853C159.877 28.3092 163.243 26.1168 164.068 22.1332Z" fill="#032A79"/>
<path d="M111.11 32.2582C106.823 32.3947 103.439 30.9252 101.564 27.0326C100.913 25.6818 100.647 24.0466 100.593 22.5273C100.458 18.8033 100.548 15.0712 100.552 11.3424C100.552 11.1972 100.591 11.052 100.62 10.8514C102.239 10.8514 103.822 10.8514 105.54 10.8514C105.54 11.2466 105.54 11.6507 105.54 12.0549C105.54 15.4793 105.51 18.9041 105.548 22.3281C105.59 25.9892 108.039 28.0454 111.588 27.4657C113.516 27.1509 114.994 25.7477 115.338 23.8265C115.464 23.1204 115.499 22.3904 115.502 21.6709C115.518 18.0646 115.509 14.4582 115.509 10.8394C117.202 10.8394 118.788 10.8394 120.505 10.8394C120.505 11.5973 120.511 12.3096 120.504 13.0218C120.47 16.5583 120.48 20.096 120.383 23.6308C120.247 28.5424 116.004 32.1745 111.11 32.2582Z" fill="#032A79"/>
<path d="M60.7657 26.4743C61.7311 26.946 62.6381 27.3522 63.7439 27.8475C63.7439 28.9848 63.7439 30.4389 63.7439 31.8938C59.3679 32.608 55.1779 29.558 55.0276 25.1904C54.8051 18.7293 54.8945 12.2573 54.8546 5.78992C54.853 5.53173 54.8867 5.27332 54.9079 4.95618C56.5511 4.95618 58.1341 4.95618 59.81 4.95618C59.81 6.83934 59.81 8.73008 59.81 10.7458C61.164 10.7458 62.431 10.7458 63.767 10.7458C63.767 12.336 63.767 13.8014 63.767 15.3807C62.5128 15.3807 61.2729 15.3807 59.8513 15.3807C59.8513 16.041 59.8512 16.5918 59.8513 17.1427C59.8515 19.35 59.7715 21.5617 59.891 23.7625C59.9396 24.6567 60.4221 25.5274 60.7657 26.4743Z" fill="#049D3E"/>
<path d="M96.7985 15.3956C96.156 15.3956 95.6255 15.3956 95.0107 15.3956C95.0107 18.5247 94.9271 21.599 95.0431 24.6657C95.1091 26.4098 96.3396 27.2354 98.8452 27.566C98.8452 28.9872 98.8452 30.4192 98.8452 31.8608C95.042 32.7781 90.8994 29.9158 90.1617 25.8194C90.081 25.3713 90.0036 24.9143 90.0029 24.4613C89.9927 17.9987 89.9959 11.5361 89.9959 4.98206C91.621 4.98206 93.2278 4.98206 94.9269 4.98206C94.9269 6.85589 94.9269 8.73972 94.9269 10.7596C96.2759 10.7596 97.5407 10.7596 98.8569 10.7596C98.8569 12.3631 98.8569 13.8301 98.8569 15.3956C98.1893 15.3956 97.5499 15.3956 96.7985 15.3956Z" fill="#032A79"/>
<path d="M41.0167 26.925C42.0573 27.159 43.016 27.3564 44.0785 27.5752C44.0785 28.9959 44.0785 30.5296 44.0785 32.2068C39.8827 32.4623 36.3301 31.1121 33.8658 27.7C31.223 24.0408 31.1304 20.0108 33.3553 16.1093C35.6704 12.0495 39.3191 10.2238 44.0776 10.4427C44.0776 12.0435 44.0776 13.6158 44.0776 14.8563C42.5421 15.3968 40.9611 15.6178 39.7879 16.4288C36.2067 18.904 36.4618 23.941 40.1497 26.4264C40.4011 26.5958 40.6727 26.7352 41.0167 26.925Z" fill="#049D3E"/>
<path d="M0 16.0204C6.85196e-06 10.9658 6.97018e-06 6.0254 6.97018e-06 1.00439C1.86704 1.00439 3.67266 1.00439 5.55688 1.00439C5.55688 7.4677 5.55688 13.9522 5.55688 20.5171C3.76222 20.5171 1.95791 20.5171 0 20.5171C0 19.071 0 17.6028 0 16.0204Z" fill="#049D3E"/>
<path d="M51.6861 29.932C51.6861 30.6426 51.6861 31.2424 51.6861 31.8961C49.9887 31.8961 48.4063 31.8961 46.7295 31.8961C46.7295 24.8946 46.7295 17.8956 46.7295 10.8428C48.3473 10.8428 49.931 10.8428 51.6861 10.8428C51.6861 17.1671 51.6861 23.4942 51.6861 29.932Z" fill="#049D3E"/>
<path d="M29.4731 20.8169C29.4731 24.5672 29.4731 28.2033 29.4731 31.8949C27.7755 31.8949 26.1948 31.8949 24.5256 31.8949C24.5256 24.9127 24.5256 17.9446 24.5256 10.8828C26.084 10.8828 27.6924 10.8828 29.4731 10.8828C29.4731 14.1315 29.4731 17.4171 29.4731 20.8169Z" fill="#049D3E"/>
<path d="M11.4288 31.7913C11.3844 30.2222 11.3844 28.7433 11.3844 27.1893C14.9331 27.1893 18.4432 27.1893 22.0111 27.1893C22.0111 28.7385 22.0111 30.2467 22.0111 31.8816C18.502 31.8816 14.9876 31.8816 11.4288 31.7913Z" fill="#049D3E"/>
<path d="M29.7312 2.05362C30.5337 3.71262 30.3513 5.16059 29.2658 6.19811C28.2291 7.189 26.641 7.40116 25.366 6.69171C24.1561 6.0185 23.5929 4.98242 23.6728 3.58941C23.7476 2.28556 24.3941 1.34884 25.5515 0.826985C26.7929 0.267293 27.996 0.420581 29.053 1.32951C29.2817 1.52619 29.4741 1.76507 29.7312 2.05362Z" fill="#049D3E"/>
<path d="M50.5106 0.82419C51.8953 1.60967 52.6233 2.70332 52.4332 4.23126C52.2648 5.58445 51.5059 6.531 50.1647 6.93929C48.7916 7.3573 47.6129 7.00108 46.6506 5.96794C45.6913 4.93795 45.5764 3.2699 46.3357 2.05196C47.171 0.712277 48.5974 0.269085 50.5106 0.82419Z" fill="#049D3E"/>
<path d="M6.15599 31.5891C3.7553 32.2895 1.75194 31.5885 0.653455 29.7201C-0.41156 27.9086 -0.118534 25.8017 1.34651 24.3939C3.40679 26.4423 5.46622 28.4899 7.64142 30.6525C7.20551 30.9359 6.72355 31.2492 6.15599 31.5891Z" fill="#FAED00"/>
<path d="M90.454 38.9328C90.1019 38.8655 89.7417 38.7959 89.5192 38.5826C89.2543 38.3287 89.1088 37.9508 88.9093 37.628C88.7305 37.3386 88.5486 37.051 88.239 36.5566C88.239 37.675 88.239 38.5829 88.239 39.5907C87.7805 39.6168 87.4224 39.6372 86.9955 39.6615C86.9955 37.7825 86.9955 35.9731 86.9955 33.9773C89.1139 34.0961 88.8672 36.3821 90.1188 37.2133C91.3296 36.4463 91.1069 34.1771 93.2118 33.9227C93.2118 35.8652 93.2118 37.6685 93.2118 39.5845C92.8972 39.6086 92.5391 39.636 92.049 39.6736C92.049 38.6479 92.049 37.693 92.049 36.7381C91.9803 36.7228 91.9116 36.7076 91.8429 36.6924C91.3976 37.4172 90.9523 38.1421 90.454 38.9328Z" fill="#032A79"/>
<path d="M56.4266 36.6023C56.1171 37.1049 55.8216 37.523 55.4964 37.9829C55.8065 38.4443 56.1417 38.943 56.5312 39.5226C55.6525 39.8197 55.1043 39.6311 54.5951 38.8806C54.3038 38.4513 53.7023 38.2324 53.0272 37.7738C52.9792 38.6301 52.9542 39.0766 52.9257 39.5866C52.5001 39.5866 52.1016 39.5866 51.6456 39.5866C51.6456 37.7416 51.6456 35.932 51.6456 34.0566C52.6679 34.0566 53.6931 33.9768 54.7006 34.0767C55.9844 34.204 56.5151 35.0269 56.4266 36.6023ZM55.1061 35.8526C54.6593 34.7814 53.7911 35.1747 53.0386 35.1712C53.0386 35.8343 53.0386 36.4163 53.0386 36.9936C54.7585 37.0344 54.7643 37.0316 55.1061 35.8526Z" fill="#032A79"/>
<path d="M153.343 39.5007C150.68 40.2079 148.564 38.6495 148.969 36.3773C149.22 34.9715 150.313 34.0215 151.817 33.9018C153.248 33.7879 154.6 34.6616 155 35.9584C155.427 37.3468 154.868 38.5909 153.343 39.5007ZM152.673 38.4667C153.487 38.1328 153.877 37.4719 153.687 36.6667C153.564 36.1449 153.178 35.4121 152.764 35.2972C152.178 35.1344 151.241 35.2389 150.856 35.6275C150.469 36.0185 150.368 36.947 150.513 37.5505C150.74 38.494 151.592 38.7103 152.673 38.4667Z" fill="#032A79"/>
<path d="M48.6204 38.13C47.8592 39.4056 46.7578 39.8876 45.4106 39.7263C44.25 39.5872 43.3509 38.9885 42.9231 37.8455C42.4581 36.6029 42.8652 35.2786 43.9165 34.5087C45.0081 33.7094 46.6444 33.7061 47.746 34.5011C48.8545 35.3012 49.1593 36.4945 48.6204 38.13ZM44.7927 38.2674C44.962 38.3491 45.124 38.4563 45.302 38.5081C46.1775 38.7629 46.911 38.503 47.3217 37.709C47.7099 36.9583 47.6803 36.147 47.0103 35.5284C46.3487 34.9175 45.5644 34.8676 44.8353 35.3886C44.1089 35.9076 43.9145 36.6512 44.2471 37.4913C44.3413 37.7295 44.5191 37.9346 44.7927 38.2674Z" fill="#032A79"/>
<path d="M145.217 40.5039C144.853 41.5851 144.422 41.7282 143.379 41.2112C144.139 40.3405 144.067 39.9365 143.049 39.4217C141.949 38.8658 141.422 37.9403 141.45 36.7452C141.478 35.5416 142.081 34.6506 143.199 34.1632C144.429 33.6268 145.694 33.8904 146.885 34.9878C146.619 35.2033 146.358 35.4142 146.109 35.6158C144.635 34.8911 143.705 34.9356 143.139 35.776C142.637 36.5215 142.67 37.2931 143.223 37.9942C143.842 38.7785 144.732 38.7734 146.034 38.0012C146.263 38.2081 146.505 38.4276 146.945 38.827C146.157 39.2252 145.489 39.5625 144.771 39.925C144.881 40.0537 145.036 40.235 145.217 40.5039ZM144.103 40.5899C144.155 40.6089 144.207 40.628 144.259 40.6471C144.244 40.5962 144.228 40.5453 144.103 40.5899Z" fill="#032A79"/>
<path d="M79.7893 38.1254C79.7893 36.729 79.7893 35.4401 79.7893 34.0833C81.223 34.0833 82.5726 34.0833 83.995 34.0833C83.995 34.3828 83.995 34.6917 83.995 35.1051C83.0451 35.1051 82.1455 35.1051 81.184 35.1051C81.184 35.5232 81.184 35.8372 81.184 36.077C81.9714 36.7147 83.4021 35.5893 83.9414 37.2746C82.8761 37.2746 82.051 37.2746 81.1717 37.2746C81.1717 37.7377 81.1717 38.1027 81.1717 38.5803C82.1657 38.5803 83.1368 38.5803 84.1576 38.5803C84.1576 38.9743 84.1576 39.2568 84.1576 39.5962C82.7151 39.5962 81.3231 39.5962 79.7893 39.5962C79.7893 39.1185 79.7893 38.6757 79.7893 38.1254Z" fill="#032A79"/>
<path d="M23.7738 38.532C24.749 38.5743 25.6208 38.5743 26.6009 38.5743C26.6173 38.9373 26.631 39.2425 26.6473 39.6024C25.1597 39.6024 23.7693 39.6024 22.3179 39.6024C22.3179 37.7456 22.3179 35.9388 22.3179 34.0726C23.692 34.0726 25.0424 34.0726 26.4566 34.0726C26.4566 34.37 26.4566 34.6537 26.4566 35.0435C25.5617 35.0435 24.6667 35.0435 23.6746 35.0435C23.6746 35.4881 23.6746 35.8286 23.6746 36.2605C24.5061 36.2605 25.2929 36.2605 26.1467 36.2605C26.1688 36.6252 26.1857 36.9043 26.209 37.2888C25.3203 37.2888 24.4967 37.2888 23.5569 37.2888C23.6018 37.7629 23.6362 38.1263 23.7738 38.532Z" fill="#032A79"/>
<path d="M159.913 37.3029C158.725 37.2671 159.298 38.0239 159.154 38.5669C160.177 38.5669 161.114 38.5669 162.111 38.5669C162.111 38.9622 162.111 39.2704 162.111 39.5937C160.649 39.5937 159.255 39.5937 157.847 39.5937C157.847 37.7245 157.847 35.9151 157.847 34.0601C159.256 34.0601 160.611 34.0601 161.961 34.0601C162.142 35.0693 162.142 35.0711 161.071 35.0784C160.47 35.0825 159.868 35.0791 159.215 35.0791C159.215 35.4912 159.215 35.8212 159.215 36.2404C160.009 36.2404 160.789 36.2404 161.638 36.2404C161.68 36.6015 161.712 36.8832 161.76 37.3029C161.136 37.3029 160.577 37.3029 159.913 37.3029Z" fill="#032A79"/>
<path d="M38.1572 37.4555C37.7745 37.3517 37.477 37.2846 37.1908 37.1851C36.4587 36.9306 35.8693 36.5097 35.9153 35.6474C35.9642 34.733 36.5184 34.1224 37.4067 34.0428C38.3133 33.9616 39.238 34.0825 40.3317 34.1211C40.1075 34.727 39.9959 35.0284 39.8805 35.3404C38.9513 35.1883 38.0274 34.5112 37.0656 35.7325C37.6928 35.9652 38.2098 36.1773 38.7398 36.3492C39.6268 36.637 40.547 36.8785 40.4667 38.1055C40.4068 39.0214 39.6696 39.7055 38.4542 39.7187C37.5885 39.7281 36.7199 39.4652 35.6722 39.2945C35.9539 38.7416 36.0974 38.46 36.2156 38.228C36.8788 38.3768 37.4584 38.5868 38.045 38.6082C38.393 38.621 38.7519 38.3364 39.1058 38.1856C38.8197 37.9496 38.5336 37.7136 38.1572 37.4555Z" fill="#032A79"/>
<path d="M31.8564 38.5774C32.5253 38.0832 32.2532 37.7615 31.7394 37.5643C31.2462 37.375 30.6274 37.393 30.2335 37.0953C29.7451 36.7263 29.0806 36.0868 29.1312 35.6358C29.1943 35.0725 29.8263 34.2689 30.3592 34.1297C31.2816 33.8886 32.3167 34.0789 33.5023 34.0902C33.2504 34.7361 33.1327 35.0379 33.014 35.3423C32.0807 35.1777 31.1596 34.5193 30.1993 35.7363C30.8361 35.9696 31.3578 36.1798 31.8916 36.3522C32.7806 36.6394 33.6951 36.8875 33.607 38.1154C33.5418 39.024 32.7943 39.7055 31.5863 39.7215C30.7445 39.7327 29.8994 39.4886 28.9053 39.3353C29.087 38.825 29.1914 38.532 29.275 38.2972C30.153 38.4062 30.958 38.5062 31.8564 38.5774Z" fill="#032A79"/>
<path d="M167.863 34.0106C168.264 34.1364 168.577 34.2468 168.932 34.3718C168.8 34.7342 168.699 35.0127 168.59 35.3136C168.446 35.3002 168.341 35.304 168.244 35.2789C167.914 35.194 167.572 34.9905 167.263 35.0338C166.828 35.0949 166.418 35.3362 165.998 35.5004C166.319 35.7542 166.615 36.0541 166.97 36.2474C167.26 36.4059 167.701 36.3443 167.933 36.5451C168.407 36.9573 169.143 37.5039 169.113 37.951C169.076 38.5105 168.485 39.2481 167.94 39.5135C166.826 40.0561 165.662 39.777 164.528 39.102C164.668 38.7614 164.79 38.4648 164.872 38.2653C165.661 38.398 166.353 38.5694 167.053 38.6026C167.301 38.6144 167.566 38.2907 167.823 38.1202C167.623 37.9248 167.455 37.6499 167.214 37.5506C166.728 37.3494 166.112 37.3636 165.716 37.0667C165.257 36.7234 164.668 36.1175 164.702 35.6679C164.742 35.1226 165.271 34.4172 165.78 34.1568C166.329 33.8762 167.1 34.0305 167.863 34.0106Z" fill="#032A79"/>
<path d="M137.494 34.9414C138.187 36.5033 138.853 37.9838 139.529 39.4872C138.459 39.981 137.963 39.471 137.681 38.4423C137.006 38.4423 136.331 38.4066 135.664 38.4611C135.42 38.4809 135.039 38.6715 134.986 38.8592C134.726 39.7802 134.112 39.7294 133.276 39.5659C134.074 37.7802 134.803 36.0452 135.625 34.3551C135.977 33.6302 136.997 33.93 137.494 34.9414ZM136.531 35.6716C136.51 35.6394 136.495 35.6021 136.468 35.5774C136.456 35.5663 136.404 35.5728 136.398 35.5848C136.125 36.1543 135.854 36.7253 135.538 37.3921C136.171 37.3921 136.652 37.3921 137.237 37.3921C137.01 36.8497 136.795 36.3364 136.531 35.6716Z" fill="#032A79"/>
<path d="M15.2913 39.2964C15.2102 38.8992 15.2102 38.5434 15.2102 38.2624C16.1629 38.4048 16.8944 38.5574 17.632 38.5963C17.8353 38.607 18.0565 38.279 18.2695 38.1064C18.1041 37.9241 17.9721 37.6578 17.7666 37.5762C17.2778 37.3821 16.6642 37.3967 16.2677 37.1024C15.7768 36.7381 15.1057 36.1144 15.1477 35.6618C15.1999 35.1 15.8171 34.2834 16.3431 34.1407C17.2639 33.891 18.3012 34.0711 19.474 34.0711C19.2717 34.6938 19.1744 34.9932 19.0728 35.3058C18.47 35.1959 17.9232 35.0206 17.3781 35.026C17.0664 35.0291 16.7575 35.3263 16.4474 35.4912C16.694 35.7184 16.9064 36.017 17.1955 36.1557C17.5985 36.349 18.0643 36.4064 18.4933 36.5511C19.1988 36.7891 19.8146 37.2586 19.5967 38.0247C19.4344 38.5952 18.9169 39.4013 18.4524 39.4797C17.462 39.6469 16.4032 39.4095 15.2913 39.2964Z" fill="#032A79"/>
<path d="M0.659418 39.6527C0.429597 39.4761 0.125551 39.2321 0.167115 39.1328C0.825357 37.5605 1.5064 35.9966 2.23052 34.4534C2.5402 33.7935 3.60967 33.7961 3.91962 34.4565C4.70223 36.1241 5.43651 37.8144 6.21903 39.56C5.40984 39.7055 4.82328 39.8219 4.49556 38.8957C4.24033 38.1744 2.00848 38.2659 1.57365 38.9183C1.37584 39.2151 1.02656 39.4109 0.659418 39.6527ZM2.44849 36.8825C2.43966 37.5317 2.43966 37.5317 3.87406 37.3192C3.61681 36.7123 3.36778 36.1248 3.06609 35.4131C2.83257 35.9539 2.66781 36.3355 2.44849 36.8825Z" fill="#032A79"/>
<path d="M66.7749 34.1981C67.6049 36.018 68.3831 37.772 69.1631 39.5301C68.0205 39.9554 67.5507 39.3724 67.2954 38.4422C66.6176 38.4422 65.9676 38.3964 65.3295 38.464C65.0611 38.4924 64.6651 38.7088 64.5907 38.9289C64.3037 39.7772 63.7273 39.7384 62.9162 39.5455C63.6962 37.797 64.4113 36.0569 65.2762 34.3948C65.4149 34.1284 66.2238 34.2109 66.7749 34.1981ZM65.6955 37.439C66.0576 37.439 66.4196 37.439 66.8776 37.439C66.5924 36.7489 66.3496 36.1616 66.1067 35.5742C66.0133 35.5715 65.9199 35.5689 65.8264 35.5662C65.7216 36.1885 65.6167 36.8109 65.6955 37.439Z" fill="#032A79"/>
<path d="M10.3234 35.006C10.0177 35.2305 9.80318 35.4471 9.58868 35.6638C9.81894 35.8285 10.0288 36.0441 10.2841 36.1465C10.7027 36.3144 11.154 36.3988 11.5857 36.5365C12.291 36.7616 12.948 37.2076 12.7356 37.9719C12.5701 38.5676 12.0637 39.2334 11.5236 39.5245C10.525 40.0629 9.32193 39.7919 8.14883 39.0403C8.26868 38.7588 8.39391 38.4647 8.47754 38.2683C9.26178 38.3996 9.95491 38.5701 10.6545 38.6032C10.8983 38.6147 11.1582 38.2866 11.4107 38.1135C11.2116 37.9192 11.0448 37.6483 10.8062 37.5473C10.3929 37.3723 9.92594 37.3288 9.49776 37.1825C8.77564 36.9359 8.17192 36.533 8.21118 35.663C8.25259 34.7452 8.80363 34.1513 9.68147 34.0495C10.5835 33.9449 11.5071 34.0263 12.621 34.0263C12.4126 34.6874 12.3181 34.9872 12.2222 35.2916C11.5822 35.1877 10.9984 35.0929 10.3234 35.006Z" fill="#032A79"/>
<path d="M115.396 37.8356C115.109 35.9432 115.529 34.9103 116.779 34.2661C118.046 33.6139 119.414 33.8314 120.676 34.9948C120.388 35.1877 120.107 35.3761 119.766 35.6047C119.541 35.4885 119.262 35.306 118.956 35.1931C118.152 34.8959 117.429 35.0733 116.938 35.7698C116.429 36.4917 116.445 37.2999 117.01 37.9832C117.547 38.6333 118.32 38.8481 119.056 38.4077C119.7 38.0223 120.133 38.0095 120.505 38.6894C119.129 40.419 116.576 40.034 115.396 37.8356Z" fill="#032A79"/>
<path d="M131.863 34.5424C131.351 34.8682 130.838 35.1047 130.153 35.4208C130.153 36.5973 130.153 38.0273 130.153 39.5821C129.667 39.6114 129.272 39.6353 128.79 39.6643C128.79 38.1626 128.79 36.73 128.79 35.1759C128.165 35.1393 127.611 35.1068 127.001 35.071C127.001 34.7145 127.001 34.392 127.001 34.0132C128.444 34.0132 129.849 33.9953 131.253 34.0328C131.46 34.0383 131.66 34.3066 131.863 34.5424Z" fill="#032A79"/>
<path d="M105.149 39.6509C104.894 39.4433 104.618 39.2401 104.614 39.0309C104.577 37.4 104.594 35.768 104.594 34.0751C105.047 34.0751 105.45 34.0751 105.944 34.0751C105.944 35.5517 105.944 37.0182 105.944 38.5537C106.896 38.5537 107.758 38.5537 108.69 38.5537C108.69 38.9375 108.69 39.2507 108.69 39.6526C107.517 39.6526 106.385 39.6526 105.149 39.6509Z" fill="#032A79"/>
<path d="M111.194 37.7015C111.194 36.4502 111.194 35.3106 111.194 34.0923C111.653 34.0923 112.081 34.0923 112.538 34.0923C112.538 35.9132 112.538 37.6948 112.538 39.5988C112.136 39.6174 111.74 39.6356 111.194 39.6607C111.194 38.9986 111.194 38.4059 111.194 37.7015Z" fill="#032A79"/>
<path d="M59.2425 35.8918C59.2425 35.2468 59.2425 34.716 59.2425 34.0998C59.6651 34.0998 60.0548 34.0998 60.5077 34.0998C60.5077 35.8975 60.5077 37.6986 60.5077 39.5909C60.1423 39.6112 59.785 39.631 59.2425 39.6611C59.2425 38.3986 59.2425 37.2022 59.2425 35.8918Z" fill="#032A79"/>
<path d="M124.225 39.6329C123.571 39.6946 123.161 39.6736 123.185 38.914C123.234 37.3275 123.2 35.7384 123.2 34.0827C123.654 34.0827 124.046 34.0827 124.606 34.0827C124.516 35.9635 124.429 37.7915 124.225 39.6329Z" fill="#032A79"/>
<path d="M153.527 32.6087C153.186 32.9859 152.872 33.4075 152.461 33.551C152.203 33.6408 151.804 33.2173 151.461 33.2032C151.21 33.1929 150.947 33.4742 150.544 33.7109C150.507 32.7997 150.872 32.1803 151.509 32.4212C152.225 32.6923 152.841 32.6119 153.527 32.6087Z" fill="#032A79"/>
<path d="M55.1254 35.9357C54.7643 37.0316 54.7585 37.0344 53.0386 36.9937C53.0386 36.4163 53.0386 35.8343 53.0386 35.1712C53.7911 35.1747 54.6593 34.7814 55.1254 35.9357Z" fill="white"/>
<path d="M152.592 38.5043C151.592 38.7103 150.74 38.494 150.513 37.5504C150.368 36.9469 150.469 36.0184 150.856 35.6275C151.241 35.2389 152.178 35.1344 152.764 35.2972C153.178 35.4121 153.564 36.1449 153.687 36.6667C153.877 37.4719 153.487 38.1328 152.592 38.5043Z" fill="white"/>
<path d="M44.7256 38.2111C44.5191 37.9346 44.3413 37.7295 44.2471 37.4913C43.9146 36.6512 44.1089 35.9076 44.8353 35.3886C45.5644 34.8676 46.3487 34.9175 47.0103 35.5284C47.6803 36.147 47.71 36.9584 47.3217 37.7091C46.911 38.503 46.1775 38.7629 45.302 38.5081C45.124 38.4563 44.962 38.3491 44.7256 38.2111Z" fill="white"/>
<path d="M144.158 40.5421C144.228 40.5453 144.244 40.5962 144.259 40.6471C144.207 40.628 144.155 40.609 144.158 40.5421Z" fill="white"/>
<path d="M136.555 35.7473C136.795 36.3363 137.01 36.8496 137.237 37.392C136.652 37.392 136.171 37.392 135.538 37.392C135.854 36.7253 136.125 36.1543 136.398 35.5847C136.404 35.5727 136.456 35.5663 136.468 35.5773C136.495 35.602 136.51 35.6394 136.555 35.7473Z" fill="white"/>
<path d="M2.47579 36.7998C2.66783 36.3355 2.8326 35.9539 3.06612 35.4131C3.36781 36.1248 3.61684 36.7123 3.87409 37.3192C2.43969 37.5317 2.43969 37.5317 2.47579 36.7998Z" fill="white"/>
<path d="M65.6037 37.4362C65.6167 36.8109 65.7216 36.1886 65.8264 35.5662C65.9199 35.5689 66.0133 35.5715 66.1068 35.5742C66.3496 36.1616 66.5924 36.749 66.8777 37.4391C66.4197 37.4391 66.0576 37.4391 65.6037 37.4362Z" fill="white"/>
</svg>
